<svg xmlns="http://www.w3.org/2000/svg" width="200" height="200" viewBox="0 0 200 200">
  <rect x="4" y="4" width="192" height="192" rx="28" ry="28" fill="#F5E6B8" stroke="#8B6F1F" stroke-width="2"/>
  <path d="M32 18 H168 A14 14 0 0 1 182 32 V139 H18 V32 A14 14 0 0 1 32 18 Z" fill="#F5E6B8"/>
  <path d="M18 140 H182 V168 A14 14 0 0 1 168 182 H32 A14 14 0 0 1 18 168 Z" fill="#0F1F0F"/>

  <polyline points="18,115 55,115 55,72 155,72" fill="none" stroke="#E24B4A" stroke-width="1.25" stroke-linecap="round" stroke-linejoin="round"/>
  <path d="M18,115 C50,115 54,115 55,115 C57,110 61,72 65,61 C68,57 74,66 84,70 C100,73 130,72 155,72" fill="none" stroke="#C9A200" stroke-width="1.25" stroke-linecap="round" stroke-linejoin="round"/>

  <g transform="translate(38,162)">
    <path d="M0,6 Q2,10 0,14" fill="none" stroke="#3B6D11" stroke-width="1.5" stroke-linecap="round"/>
    <path d="M0,10 Q-5,7 -4,4" fill="none" stroke="#3B6D11" stroke-width="1.2" stroke-linecap="round"/>
    <path d="M0,10 Q5,7 4,4" fill="none" stroke="#3B6D11" stroke-width="1.2" stroke-linecap="round"/>
    <ellipse cx="0" cy="-6" rx="2" ry="4" fill="#F5E642" transform="rotate(0)"/>
    <ellipse cx="0" cy="-6" rx="2" ry="4" fill="#F5E642" transform="rotate(45)"/>
    <ellipse cx="0" cy="-6" rx="2" ry="4" fill="#F5E642" transform="rotate(90)"/>
    <ellipse cx="0" cy="-6" rx="2" ry="4" fill="#F5E642" transform="rotate(135)"/>
    <ellipse cx="0" cy="-6" rx="2" ry="4" fill="#F5E642" transform="rotate(180)"/>
    <ellipse cx="0" cy="-6" rx="2" ry="4" fill="#F5E642" transform="rotate(225)"/>
    <ellipse cx="0" cy="-6" rx="2" ry="4" fill="#F5E642" transform="rotate(270)"/>
    <ellipse cx="0" cy="-6" rx="2" ry="4" fill="#F5E642" transform="rotate(315)"/>
    <circle cx="0" cy="0" r="3" fill="#C8960A"/>
    <circle cx="0" cy="0" r="1.5" fill="#E8B020"/>
  </g>

  <text x="100" y="168" text-anchor="middle" font-family="Arial" font-size="13" font-weight="700" fill="#97C459" letter-spacing="2">MOTORDEV</text>

  <g transform="translate(162,162)">
    <path d="M0,6 Q-2,10 0,14" fill="none" stroke="#3B6D11" stroke-width="1.5" stroke-linecap="round"/>
    <path d="M0,10 Q-5,7 -4,4" fill="none" stroke="#3B6D11" stroke-width="1.2" stroke-linecap="round"/>
    <path d="M0,10 Q5,7 4,4" fill="none" stroke="#3B6D11" stroke-width="1.2" stroke-linecap="round"/>
    <ellipse cx="0" cy="-6" rx="2" ry="4" fill="#F5E642" transform="rotate(0)"/>
    <ellipse cx="0" cy="-6" rx="2" ry="4" fill="#F5E642" transform="rotate(45)"/>
    <ellipse cx="0" cy="-6" rx="2" ry="4" fill="#F5E642" transform="rotate(90)"/>
    <ellipse cx="0" cy="-6" rx="2" ry="4" fill="#F5E642" transform="rotate(135)"/>
    <ellipse cx="0" cy="-6" rx="2" ry="4" fill="#F5E642" transform="rotate(180)"/>
    <ellipse cx="0" cy="-6" rx="2" ry="4" fill="#F5E642" transform="rotate(225)"/>
    <ellipse cx="0" cy="-6" rx="2" ry="4" fill="#F5E642" transform="rotate(270)"/>
    <ellipse cx="0" cy="-6" rx="2" ry="4" fill="#F5E642" transform="rotate(315)"/>
    <circle cx="0" cy="0" r="3" fill="#C8960A"/>
    <circle cx="0" cy="0" r="1.5" fill="#E8B020"/>
  </g>
</svg>
